<svg width="24" height="24" viewBox="0 0 100 100" fill="none" xmlns="http://www.w3.org/2000/svg">
<path d="M61.0369 44.1713L50.2138 54.9944L46.0269 50.8073L51.216 45.6183L51.2182 45.6159L56.8497 39.9844L61.0369 44.1713Z" fill="#4B970F"/>
<path d="M33.4026 35.0865L31.8701 33.5539L39.1537 26.27L40.6864 27.8027L33.4026 35.0865Z" fill="#4B970F"/>
<path d="M34.967 36.6506L42.251 29.3667L44.0047 31.1206L36.7211 38.4044L34.967 36.6506Z" fill="#4B970F"/>
<path d="M38.2849 39.9687L45.5688 32.6848L47.3227 34.4387L40.0388 41.7226L38.2849 39.9687Z" fill="#4B970F"/>
<path d="M41.603 43.2865L48.8868 36.0027L50.6406 37.7566L43.3569 45.0404L41.603 43.2865Z" fill="#4B970F"/>
<path d="M63.0434 50.1594L55.7595 57.4433L57.2922 58.9759L64.576 51.6921L63.0434 50.1594Z" fill="#4B970F"/>
<path d="M66.1402 53.2563L58.8564 60.54L60.6103 62.2939L67.8942 55.0101L66.1402 53.2563Z" fill="#4B970F"/>
<path d="M69.458 56.5742L62.1741 63.8581L63.9279 65.612L71.2117 58.3281L69.458 56.5742Z" fill="#4B970F"/>
<path d="M72.7759 59.8921L65.4919 67.1759L67.246 68.9298L74.5297 61.646L72.7759 59.8921Z" fill="#4B970F"/>
<path fill-rule="evenodd" clip-rule="evenodd" d="M98 50C98 76.5097 76.5097 98 50 98C23.4903 98 2 76.5097 2 50C2 23.4904 23.4903 2 50 2C76.5097 2 98 23.4904 98 50ZM39.936 23.9239C39.504 23.4921 38.8038 23.4921 38.3718 23.9239L29.5239 32.7719C29.0921 33.2037 29.0921 33.904 29.5239 34.336L42.5745 47.3866C43.0066 47.8186 43.7068 47.8186 44.1388 47.3866L47.7807 43.7447L48.8709 44.8351L43.6807 50.0253C43.2486 50.4573 43.2486 51.1576 43.6807 51.5894L45.7743 53.683L41.911 57.546C41.4792 57.978 41.4792 58.6783 41.911 59.1103C42.3431 59.5421 43.0431 59.5421 43.4751 59.1103L47.3382 55.2471L49.4317 57.3406C49.8636 57.7726 50.564 57.7726 50.9958 57.3406L56.1862 52.1502L57.0552 53.0193L53.4133 56.6613C52.9813 57.0932 52.9813 57.7934 53.4133 58.2253L66.4639 71.276C66.896 71.708 67.5962 71.708 68.028 71.276L76.876 62.4281C77.3081 61.9963 77.3081 61.296 76.876 60.864L63.8253 47.8133C63.3934 47.3813 62.693 47.3813 62.2612 47.8133L58.6193 51.4552L57.7503 50.5863L60.5665 47.7698L63.3829 44.9534C63.815 44.5216 63.815 43.8213 63.3829 43.3893L57.6319 37.6383C57.2 37.2063 56.4997 37.2063 56.0676 37.6383L50.4351 43.271L49.3447 42.1806L52.9866 38.5387C53.4185 38.1069 53.4185 37.4066 52.9866 36.9746L39.936 23.9239ZM39.1538 59.213C39.1538 58.602 38.6588 58.1068 38.048 58.1068C37.437 58.1068 36.942 58.602 36.942 59.213C36.942 61.7783 39.0217 63.858 41.5871 63.858C42.1979 63.858 42.6931 63.3628 42.6931 62.752C42.6931 62.1412 42.1979 61.646 41.5871 61.646C40.2433 61.646 39.1538 60.5567 39.1538 59.213ZM34.5087 58.1068C35.1195 58.1068 35.6147 58.602 35.6147 59.213C35.6147 62.5114 38.2887 65.1852 41.5871 65.1852C42.1979 65.1852 42.6931 65.6804 42.6931 66.2912C42.6931 66.902 42.1979 67.3972 41.5871 67.3972C37.0671 67.3972 33.4027 63.733 33.4027 59.213C33.4027 58.602 33.8979 58.1068 34.5087 58.1068ZM32.0756 59.213C32.0756 58.602 31.5804 58.1068 30.9696 58.1068C30.3586 58.1068 29.8636 58.602 29.8636 59.213C29.8636 65.6877 35.1123 70.9364 41.5871 70.9364C42.1979 70.9364 42.6931 70.4412 42.6931 69.8305C42.6931 69.2197 42.1979 68.7245 41.5871 68.7245C36.3341 68.7245 32.0756 64.4661 32.0756 59.213Z" fill="#4B970F"/>
<path fill-rule="evenodd" clip-rule="evenodd" d="M38.3719 23.924C38.804 23.4921 39.5042 23.4921 39.9362 23.924L52.9868 36.9746C53.4187 37.4066 53.4187 38.1067 52.9868 38.5387L49.3449 42.1807L50.4353 43.2708L56.0678 37.6383C56.4998 37.2064 57.2002 37.2064 57.632 37.6383L63.3831 43.3894C63.8151 43.8214 63.8151 44.5216 63.3831 44.9535L60.5667 47.7699L57.7504 50.5863L58.6195 51.4553L62.2613 47.8133C62.6932 47.3813 63.3936 47.3813 63.8254 47.8133L76.8762 60.864C77.3082 61.296 77.3082 61.9963 76.8762 62.4281L68.0282 71.2761C67.5963 71.708 66.8961 71.708 66.4641 71.2761L53.4135 58.2254C52.9815 57.7934 52.9815 57.0933 53.4135 56.6613L57.0554 53.0194L56.1863 52.1502L50.996 57.3406C50.5641 57.7726 49.8638 57.7726 49.4319 57.3406L47.3383 55.2471L43.4753 59.1101C43.0433 59.5421 42.3432 59.5421 41.9112 59.1101C41.4794 58.6783 41.4794 57.978 41.9112 57.546L45.7744 53.6831L43.6808 51.5894C43.2488 51.1576 43.2488 50.4573 43.6808 50.0253L48.871 44.8351L47.7808 43.7447L44.139 47.3867C43.7069 47.8187 43.0067 47.8187 42.5747 47.3867L29.5241 34.336C29.0922 33.904 29.0922 33.2037 29.5241 32.7719L38.3719 23.924ZM38.0482 58.1069C38.659 58.1069 39.154 58.6021 39.154 59.213C39.154 60.5567 40.2435 61.6461 41.5873 61.6461C42.1981 61.6461 42.6933 62.1413 42.6933 62.7521C42.6933 63.3629 42.1981 63.8581 41.5873 63.8581C39.0219 63.8581 36.9422 61.7783 36.9422 59.213C36.9422 58.6021 37.4372 58.1069 38.0482 58.1069ZM35.6149 59.213C35.6149 58.6021 35.1197 58.1069 34.5089 58.1069C33.8981 58.1069 33.4029 58.6021 33.4029 59.213C33.4029 63.733 37.0673 67.3973 41.5873 67.3973C42.1981 67.3973 42.6933 66.9021 42.6933 66.2913C42.6933 65.6805 42.1981 65.1853 41.5873 65.1853C38.2889 65.1853 35.6149 62.5114 35.6149 59.213ZM30.9698 58.1069C31.5806 58.1069 32.0758 58.6021 32.0758 59.213C32.0758 64.4661 36.3343 68.7245 41.5873 68.7245C42.1981 68.7245 42.6933 69.2197 42.6933 69.8305C42.6933 70.4413 42.1981 70.9365 41.5873 70.9365C35.1125 70.9365 29.8638 65.6877 29.8638 59.213C29.8638 58.6021 30.3588 58.1069 30.9698 58.1069ZM31.8704 33.5539L33.4029 35.0866L40.6867 27.8028L39.154 26.2701L31.8704 33.5539ZM50.214 54.9945L61.037 44.1714L56.8498 39.9845L51.2184 45.616L51.2161 45.6182L46.027 50.8074L50.214 54.9945ZM34.967 36.6507L42.2509 29.3668L44.0046 31.1207L36.721 38.4046L34.967 36.6507ZM45.5689 32.6848L38.2849 39.9687L40.0388 41.7226L47.3227 34.4387L45.5689 32.6848ZM41.6031 43.2866L48.8868 36.0028L50.6407 37.7567L43.3569 45.0405L41.6031 43.2866ZM55.7596 57.4433L63.0436 50.1595L64.5761 51.6921L57.2923 58.976L55.7596 57.4433ZM66.1402 53.2562L58.8564 60.5401L60.6103 62.294L67.8942 55.0101L66.1402 53.2562ZM62.1744 63.8581L69.4583 56.5742L71.212 58.3281L63.9282 65.6119L62.1744 63.8581ZM72.7762 59.8922L65.4923 67.176L67.2463 68.9299L74.5301 61.6461L72.7762 59.8922Z" fill="white"/>
</svg>
